<mxfile host="app.diagrams.net" modified="2023-06-20T06:49:58.665Z" agent="5.0 (Windows NT 10.0; Win64; x64) AppleWebKit/537.36 (KHTML, like Gecko) Chrome/114.0.0.0 Safari/537.36" etag="cJYwqaM8Ihs5nuTTqfoK" version="20.8.20" type="github">
  <diagram id="C5RBs43oDa-KdzZeNtuy" name="Page-1">
    <mxGraphModel dx="880" dy="452" grid="1" gridSize="10" guides="1" tooltips="1" connect="1" arrows="1" fold="1" page="1" pageScale="1" pageWidth="827" pageHeight="1169" math="0" shadow="0">
      <root>
        <mxCell id="WIyWlLk6GJQsqaUBKTNV-0" />
        <mxCell id="WIyWlLk6GJQsqaUBKTNV-1" parent="WIyWlLk6GJQsqaUBKTNV-0" />
        <mxCell id="DaY63lajLHzlWUjS1HvT-0" value="&lt;b&gt;Requirement Collection&lt;/b&gt;" style="rounded=0;whiteSpace=wrap;html=1;" vertex="1" parent="WIyWlLk6GJQsqaUBKTNV-1">
          <mxGeometry x="330" y="80" width="120" height="40" as="geometry" />
        </mxCell>
        <mxCell id="DaY63lajLHzlWUjS1HvT-2" value="&lt;b&gt;Design&lt;/b&gt;" style="rounded=0;whiteSpace=wrap;html=1;" vertex="1" parent="WIyWlLk6GJQsqaUBKTNV-1">
          <mxGeometry x="330" y="220" width="120" height="40" as="geometry" />
        </mxCell>
        <mxCell id="DaY63lajLHzlWUjS1HvT-3" value="&lt;b&gt;Feasibility &lt;br&gt;Study&lt;/b&gt;" style="rounded=0;whiteSpace=wrap;html=1;" vertex="1" parent="WIyWlLk6GJQsqaUBKTNV-1">
          <mxGeometry x="330" y="150" width="120" height="40" as="geometry" />
        </mxCell>
        <mxCell id="DaY63lajLHzlWUjS1HvT-5" value="&lt;b&gt;Development&lt;/b&gt;" style="rounded=0;whiteSpace=wrap;html=1;" vertex="1" parent="WIyWlLk6GJQsqaUBKTNV-1">
          <mxGeometry x="330" y="290" width="120" height="40" as="geometry" />
        </mxCell>
      </root>
    </mxGraphModel>
  </diagram>
</mxfile>
